<mxfile host="65bd71144e">
    <diagram id="EDfYm0DCEiSoTOs859ao" name="Page-1">
        <mxGraphModel dx="1707" dy="951" grid="1" gridSize="10" guides="1" tooltips="1" connect="1" arrows="1" fold="1" page="1" pageScale="1" pageWidth="850" pageHeight="1100" math="0" shadow="0">
            <root>
                <mxCell id="0"/>
                <mxCell id="1" parent="0"/>
                <mxCell id="2" value="START" style="ellipse;whiteSpace=wrap;html=1;fillColor=#a20025;fontColor=#ffffff;strokeColor=#6F0000;" parent="1" vertex="1">
                    <mxGeometry x="170" y="30" width="90" height="50" as="geometry"/>
                </mxCell>
                <mxCell id="3" value="" style="endArrow=none;html=1;" parent="1" edge="1">
                    <mxGeometry width="50" height="50" relative="1" as="geometry">
                        <mxPoint x="215" y="120" as="sourcePoint"/>
                        <mxPoint x="214.75" y="80" as="targetPoint"/>
                        <Array as="points">
                            <mxPoint x="214.75" y="100"/>
                        </Array>
                    </mxGeometry>
                </mxCell>
                <mxCell id="4" value="INPUT" style="shape=parallelogram;perimeter=parallelogramPerimeter;whiteSpace=wrap;html=1;fixedSize=1;fillColor=#1ba1e2;fontColor=#ffffff;strokeColor=#006EAF;" parent="1" vertex="1">
                    <mxGeometry x="160" y="120" width="100" height="40" as="geometry"/>
                </mxCell>
                <mxCell id="5" value="" style="line;strokeWidth=1;html=1;perimeter=backbonePerimeter;points=[];outlineConnect=0;" parent="1" vertex="1">
                    <mxGeometry x="250" y="135" width="80" height="10" as="geometry"/>
                </mxCell>
                <mxCell id="6" value="" style="shape=partialRectangle;whiteSpace=wrap;html=1;bottom=0;right=0;fillColor=none;strokeWidth=1;" parent="1" vertex="1">
                    <mxGeometry x="330" y="120" width="70" height="30" as="geometry"/>
                </mxCell>
                <mxCell id="12" value="" style="shape=partialRectangle;whiteSpace=wrap;html=1;bottom=1;right=0;fillColor=none;strokeWidth=1;top=0;" parent="1" vertex="1">
                    <mxGeometry x="330" y="150" width="70" height="10" as="geometry"/>
                </mxCell>
                <mxCell id="13" value="PATH" style="rounded=0;whiteSpace=wrap;html=1;strokeWidth=1;fillColor=#60a917;strokeColor=#2D7600;fontColor=#ffffff;glass=0;shadow=0;opacity=60;" parent="1" vertex="1">
                    <mxGeometry x="400" y="110" width="80" height="20" as="geometry"/>
                </mxCell>
                <mxCell id="14" value="OPTION" style="rounded=0;whiteSpace=wrap;html=1;strokeWidth=1;fillColor=#60a917;fontColor=#ffffff;strokeColor=#2D7600;opacity=60;" parent="1" vertex="1">
                    <mxGeometry x="400" y="150" width="80" height="20" as="geometry"/>
                </mxCell>
                <mxCell id="15" value="" style="shape=partialRectangle;whiteSpace=wrap;html=1;bottom=0;right=1;fillColor=none;strokeWidth=1;left=0;" parent="1" vertex="1">
                    <mxGeometry x="480" y="120" width="120" height="40" as="geometry"/>
                </mxCell>
                <mxCell id="16" value="&lt;font style=&quot;font-size: 7px;&quot;&gt;EXIST?&lt;/font&gt;" style="rhombus;whiteSpace=wrap;html=1;strokeWidth=1;" parent="1" vertex="1">
                    <mxGeometry x="570" y="160" width="60" height="60" as="geometry"/>
                </mxCell>
                <mxCell id="18" value="" style="line;strokeWidth=1;direction=south;html=1;fontSize=7;" parent="1" vertex="1">
                    <mxGeometry x="595" y="220" width="10" height="20" as="geometry"/>
                </mxCell>
                <mxCell id="19" value="&lt;p style=&quot;line-height: 100%;&quot;&gt;&lt;span style=&quot;font-size: 6px;&quot;&gt;ABSOLUT?&lt;br&gt;&lt;/span&gt;&lt;/p&gt;" style="rhombus;whiteSpace=wrap;html=1;strokeWidth=1;spacing=2;" parent="1" vertex="1">
                    <mxGeometry x="570" y="280" width="60" height="60" as="geometry"/>
                </mxCell>
                <mxCell id="20" value="" style="line;strokeWidth=1;html=1;perimeter=backbonePerimeter;points=[];outlineConnect=0;fontSize=6;" parent="1" vertex="1">
                    <mxGeometry x="630" y="185" width="20" height="10" as="geometry"/>
                </mxCell>
                <mxCell id="21" value="&lt;font color=&quot;#f20707&quot;&gt;NO&lt;/font&gt;" style="text;html=1;strokeColor=none;fillColor=none;align=center;verticalAlign=middle;whiteSpace=wrap;rounded=0;strokeWidth=1;fontSize=6;" parent="1" vertex="1">
                    <mxGeometry x="630" y="180" width="20" height="5" as="geometry"/>
                </mxCell>
                <mxCell id="22" value="ERROR" style="rounded=0;whiteSpace=wrap;html=1;strokeWidth=1;fontSize=6;fontColor=#f20707;strokeColor=#ef0101;" parent="1" vertex="1">
                    <mxGeometry x="650" y="180" width="40" height="20" as="geometry"/>
                </mxCell>
                <mxCell id="23" value="RESOLVE" style="rounded=0;whiteSpace=wrap;html=1;strokeWidth=1;fillColor=#60a917;strokeColor=#2D7600;fontColor=#ffffff;" parent="1" vertex="1">
                    <mxGeometry x="565" y="240" width="70" height="20" as="geometry"/>
                </mxCell>
                <mxCell id="24" value="" style="line;strokeWidth=1;direction=south;html=1;fontSize=7;" parent="1" vertex="1">
                    <mxGeometry x="595" y="260" width="10" height="20" as="geometry"/>
                </mxCell>
                <mxCell id="25" value="" style="line;strokeWidth=1;html=1;perimeter=backbonePerimeter;points=[];outlineConnect=0;fontSize=6;" parent="1" vertex="1">
                    <mxGeometry x="630" y="305" width="20" height="10" as="geometry"/>
                </mxCell>
                <mxCell id="26" value="&lt;font color=&quot;#f20707&quot;&gt;NO&lt;/font&gt;" style="text;html=1;strokeColor=none;fillColor=none;align=center;verticalAlign=middle;whiteSpace=wrap;rounded=0;strokeWidth=1;fontSize=6;" parent="1" vertex="1">
                    <mxGeometry x="630" y="300" width="20" height="5" as="geometry"/>
                </mxCell>
                <mxCell id="27" value="ERROR" style="rounded=0;whiteSpace=wrap;html=1;strokeWidth=1;fontSize=6;fontColor=#f20707;strokeColor=#ef0101;" parent="1" vertex="1">
                    <mxGeometry x="650" y="300" width="40" height="20" as="geometry"/>
                </mxCell>
                <mxCell id="29" value="&lt;font color=&quot;#f8f7f7&quot;&gt;YES&lt;/font&gt;" style="text;html=1;strokeColor=none;fillColor=none;align=center;verticalAlign=middle;whiteSpace=wrap;rounded=0;strokeWidth=1;fontSize=6;fontColor=#f20707;" parent="1" vertex="1">
                    <mxGeometry x="565" y="225" width="30" height="10" as="geometry"/>
                </mxCell>
                <mxCell id="31" value="" style="endArrow=classic;html=1;fontSize=6;fontColor=#f8f7f7;curved=1;fillColor=#60a917;strokeColor=#2D7600;" parent="1" edge="1">
                    <mxGeometry width="50" height="50" relative="1" as="geometry">
                        <mxPoint x="670" y="330" as="sourcePoint"/>
                        <mxPoint x="620" y="330" as="targetPoint"/>
                        <Array as="points">
                            <mxPoint x="650" y="370"/>
                            <mxPoint x="620" y="330"/>
                        </Array>
                    </mxGeometry>
                </mxCell>
                <mxCell id="32" value="&lt;font color=&quot;#2d7600&quot;&gt;Transform&lt;/font&gt;" style="text;html=1;strokeColor=none;fillColor=none;align=center;verticalAlign=middle;whiteSpace=wrap;rounded=0;strokeWidth=1;fontSize=6;fontColor=#f8f7f7;" parent="1" vertex="1">
                    <mxGeometry x="620" y="350" width="40" height="10" as="geometry"/>
                </mxCell>
                <mxCell id="34" value="&lt;p style=&quot;line-height: 100%;&quot;&gt;&lt;font style=&quot;font-size: 8px;&quot;&gt;is it a file?&lt;/font&gt;&lt;br&gt;&lt;/p&gt;" style="rhombus;whiteSpace=wrap;html=1;strokeWidth=1;spacing=2;" parent="1" vertex="1">
                    <mxGeometry x="570" y="360" width="60" height="60" as="geometry"/>
                </mxCell>
                <mxCell id="35" value="" style="line;strokeWidth=1;direction=south;html=1;fontSize=7;" parent="1" vertex="1">
                    <mxGeometry x="595" y="340" width="10" height="20" as="geometry"/>
                </mxCell>
                <mxCell id="36" value="" style="line;strokeWidth=1;html=1;perimeter=backbonePerimeter;points=[];outlineConnect=0;fontSize=6;" parent="1" vertex="1">
                    <mxGeometry x="630" y="385" width="20" height="10" as="geometry"/>
                </mxCell>
                <mxCell id="37" value="&lt;font color=&quot;#f20707&quot;&gt;NO&lt;/font&gt;" style="text;html=1;strokeColor=none;fillColor=none;align=center;verticalAlign=middle;whiteSpace=wrap;rounded=0;strokeWidth=1;fontSize=6;" parent="1" vertex="1">
                    <mxGeometry x="630" y="380" width="20" height="5" as="geometry"/>
                </mxCell>
                <mxCell id="38" value="&lt;p style=&quot;line-height: 100%;&quot;&gt;&lt;span style=&quot;font-size: 8px;&quot;&gt;is a directory?&lt;/span&gt;&lt;br&gt;&lt;/p&gt;" style="rhombus;whiteSpace=wrap;html=1;strokeWidth=1;spacing=2;" parent="1" vertex="1">
                    <mxGeometry x="650" y="360" width="60" height="60" as="geometry"/>
                </mxCell>
                <mxCell id="39" value="" style="line;strokeWidth=1;html=1;perimeter=backbonePerimeter;points=[];outlineConnect=0;fontSize=6;" parent="1" vertex="1">
                    <mxGeometry x="710" y="385" width="20" height="10" as="geometry"/>
                </mxCell>
                <mxCell id="40" value="&lt;font style=&quot;font-size: 9px;&quot;&gt;read the content&lt;/font&gt;" style="rounded=0;whiteSpace=wrap;html=1;strokeWidth=1;fillColor=#60a917;strokeColor=#2D7600;fontColor=#ffffff;opacity=60;" parent="1" vertex="1">
                    <mxGeometry x="730" y="380" width="70" height="20" as="geometry"/>
                </mxCell>
                <mxCell id="41" value="" style="line;strokeWidth=1;direction=south;html=1;fontSize=7;" parent="1" vertex="1">
                    <mxGeometry x="595" y="420" width="10" height="20" as="geometry"/>
                </mxCell>
                <mxCell id="42" value="&lt;h5 style=&quot;line-height: 100%;&quot;&gt;&lt;font style=&quot;font-size: 6px;&quot;&gt;does it contain .md extensions?&lt;/font&gt;&lt;/h5&gt;" style="rhombus;whiteSpace=wrap;html=1;strokeWidth=1;spacing=2;" parent="1" vertex="1">
                    <mxGeometry x="560" y="440" width="80" height="80" as="geometry"/>
                </mxCell>
                <mxCell id="43" value="&lt;font color=&quot;#f8f7f7&quot;&gt;YES&lt;/font&gt;" style="text;html=1;strokeColor=none;fillColor=none;align=center;verticalAlign=middle;whiteSpace=wrap;rounded=0;strokeWidth=1;fontSize=6;fontColor=#f20707;" parent="1" vertex="1">
                    <mxGeometry x="565" y="345" width="30" height="10" as="geometry"/>
                </mxCell>
                <mxCell id="44" value="&lt;font color=&quot;#f8f7f7&quot;&gt;YES&lt;/font&gt;" style="text;html=1;strokeColor=none;fillColor=none;align=center;verticalAlign=middle;whiteSpace=wrap;rounded=0;strokeWidth=1;fontSize=6;fontColor=#f20707;" parent="1" vertex="1">
                    <mxGeometry x="565" y="425" width="30" height="10" as="geometry"/>
                </mxCell>
                <mxCell id="45" value="" style="line;strokeWidth=1;html=1;perimeter=backbonePerimeter;points=[];outlineConnect=0;fontSize=6;" parent="1" vertex="1">
                    <mxGeometry x="540" y="475" width="20" height="10" as="geometry"/>
                </mxCell>
                <mxCell id="46" value="&lt;font color=&quot;#f20707&quot;&gt;NO&lt;/font&gt;" style="text;html=1;strokeColor=none;fillColor=none;align=center;verticalAlign=middle;whiteSpace=wrap;rounded=0;strokeWidth=1;fontSize=6;" parent="1" vertex="1">
                    <mxGeometry x="540" y="470" width="20" height="5" as="geometry"/>
                </mxCell>
                <mxCell id="47" value="" style="line;strokeWidth=1;direction=south;html=1;fontSize=7;" parent="1" vertex="1">
                    <mxGeometry x="595" y="520" width="10" height="20" as="geometry"/>
                </mxCell>
                <mxCell id="48" value="&lt;font color=&quot;#f8f7f7&quot;&gt;YES&lt;/font&gt;" style="text;html=1;strokeColor=none;fillColor=none;align=center;verticalAlign=middle;whiteSpace=wrap;rounded=0;strokeWidth=1;fontSize=6;fontColor=#f20707;" parent="1" vertex="1">
                    <mxGeometry x="605" y="525" width="30" height="10" as="geometry"/>
                </mxCell>
                <mxCell id="49" value="RESOLVE" style="rounded=0;whiteSpace=wrap;html=1;strokeWidth=1;fillColor=#60a917;strokeColor=#2D7600;fontColor=#ffffff;" parent="1" vertex="1">
                    <mxGeometry x="565" y="540" width="70" height="20" as="geometry"/>
                </mxCell>
                <mxCell id="50" value="invalid extension" style="rounded=0;whiteSpace=wrap;html=1;strokeWidth=1;fontSize=6;fontColor=#f20707;strokeColor=#ef0101;" parent="1" vertex="1">
                    <mxGeometry x="500" y="470" width="40" height="20" as="geometry"/>
                </mxCell>
                <mxCell id="51" value="" style="shape=partialRectangle;whiteSpace=wrap;html=1;bottom=1;right=1;fillColor=none;strokeWidth=1;top=0;left=0;" parent="1" vertex="1">
                    <mxGeometry x="660" y="400" width="100" height="80" as="geometry"/>
                </mxCell>
                <mxCell id="52" value="" style="endArrow=classic;html=1;fontSize=6;fontColor=#2d7600;curved=1;" parent="1" edge="1">
                    <mxGeometry width="50" height="50" relative="1" as="geometry">
                        <mxPoint x="660" y="480" as="sourcePoint"/>
                        <mxPoint x="650" y="480" as="targetPoint"/>
                    </mxGeometry>
                </mxCell>
                <mxCell id="53" value="&lt;font style=&quot;font-size: 10px;&quot;&gt;--validate/--stats&lt;/font&gt;" style="rounded=0;whiteSpace=wrap;html=1;strokeWidth=1;fillColor=#60a917;fontColor=#ffffff;strokeColor=#2D7600;opacity=60;" parent="1" vertex="1">
                    <mxGeometry x="400" y="240" width="80" height="20" as="geometry"/>
                </mxCell>
                <mxCell id="54" value="-- stats" style="rounded=0;whiteSpace=wrap;html=1;strokeWidth=1;fillColor=#60a917;fontColor=#ffffff;strokeColor=#2D7600;opacity=60;" parent="1" vertex="1">
                    <mxGeometry x="240" y="240" width="80" height="20" as="geometry"/>
                </mxCell>
                <mxCell id="55" value="-- validate" style="rounded=0;whiteSpace=wrap;html=1;strokeWidth=1;fillColor=#60a917;fontColor=#ffffff;strokeColor=#2D7600;opacity=60;" parent="1" vertex="1">
                    <mxGeometry x="80" y="240" width="80" height="20" as="geometry"/>
                </mxCell>
                <mxCell id="61" value="" style="line;strokeWidth=1;direction=south;html=1;fontSize=7;" parent="1" vertex="1">
                    <mxGeometry x="435" y="170" width="10" height="20" as="geometry"/>
                </mxCell>
                <mxCell id="64" value="" style="line;strokeWidth=1;html=1;rounded=0;shadow=0;glass=0;sketch=0;strokeColor=#f8f7f7;fontSize=6;fontColor=#2d7600;" parent="1" vertex="1">
                    <mxGeometry x="120" y="185" width="320" height="10" as="geometry"/>
                </mxCell>
                <mxCell id="65" value="" style="line;strokeWidth=1;direction=south;html=1;fontSize=7;" parent="1" vertex="1">
                    <mxGeometry x="115" y="190" width="10" height="50" as="geometry"/>
                </mxCell>
                <mxCell id="66" value="" style="line;strokeWidth=1;direction=south;html=1;fontSize=7;" parent="1" vertex="1">
                    <mxGeometry x="275" y="190" width="10" height="50" as="geometry"/>
                </mxCell>
                <mxCell id="67" value="" style="line;strokeWidth=1;direction=south;html=1;fontSize=7;" parent="1" vertex="1">
                    <mxGeometry x="435" y="190" width="10" height="50" as="geometry"/>
                </mxCell>
                <mxCell id="68" value="&lt;p style=&quot;line-height: 100%;&quot;&gt;&lt;font style=&quot;font-size: 10px;&quot;&gt;it's true?&lt;/font&gt;&lt;br&gt;&lt;/p&gt;" style="rhombus;whiteSpace=wrap;html=1;strokeWidth=1;spacing=2;" parent="1" vertex="1">
                    <mxGeometry x="90" y="280" width="60" height="60" as="geometry"/>
                </mxCell>
                <mxCell id="69" value="" style="line;strokeWidth=1;direction=south;html=1;fontSize=7;" parent="1" vertex="1">
                    <mxGeometry x="115" y="260" width="10" height="20" as="geometry"/>
                </mxCell>
                <mxCell id="70" value="" style="line;strokeWidth=1;direction=south;html=1;fontSize=7;" parent="1" vertex="1">
                    <mxGeometry x="115" y="340" width="10" height="20" as="geometry"/>
                </mxCell>
                <mxCell id="71" value="" style="line;strokeWidth=1;html=1;perimeter=backbonePerimeter;points=[];outlineConnect=0;fontSize=6;" parent="1" vertex="1">
                    <mxGeometry x="100" y="355" width="20" height="10" as="geometry"/>
                </mxCell>
                <mxCell id="72" value="&lt;font color=&quot;#f20707&quot;&gt;NO&lt;/font&gt;" style="text;html=1;strokeColor=none;fillColor=none;align=center;verticalAlign=middle;whiteSpace=wrap;rounded=0;strokeWidth=1;fontSize=6;" parent="1" vertex="1">
                    <mxGeometry x="100" y="350" width="20" height="5" as="geometry"/>
                </mxCell>
                <mxCell id="74" value="result" style="swimlane;fontStyle=0;childLayout=stackLayout;horizontal=1;startSize=30;horizontalStack=0;resizeParent=1;resizeParentMax=0;resizeLast=0;collapsible=1;marginBottom=0;whiteSpace=wrap;html=1;rounded=0;shadow=0;glass=0;sketch=0;strokeColor=#314354;strokeWidth=1;fontSize=10;fontColor=#ffffff;opacity=60;fillColor=#647687;" parent="1" vertex="1">
                    <mxGeometry x="30" y="345" width="70" height="120" as="geometry">
                        <mxRectangle x="30" y="345" width="60" height="30" as="alternateBounds"/>
                    </mxGeometry>
                </mxCell>
                <mxCell id="75" value="&lt;font style=&quot;font-size: 12px;&quot;&gt;&lt;b&gt;href:&lt;/b&gt;&lt;/font&gt;" style="text;strokeColor=#314354;fillColor=#647687;align=center;verticalAlign=middle;spacingLeft=4;spacingRight=4;overflow=hidden;points=[[0,0.5],[1,0.5]];portConstraint=eastwest;rotatable=0;whiteSpace=wrap;html=1;rounded=0;shadow=0;glass=0;sketch=0;strokeWidth=1;fontSize=10;fontColor=#ffffff;opacity=60;" parent="74" vertex="1">
                    <mxGeometry y="30" width="70" height="30" as="geometry"/>
                </mxCell>
                <mxCell id="76" value="&lt;font style=&quot;font-size: 12px;&quot;&gt;&lt;b&gt;text:&lt;/b&gt;&lt;/font&gt;" style="text;strokeColor=#314354;fillColor=#647687;align=center;verticalAlign=middle;spacingLeft=4;spacingRight=4;overflow=hidden;points=[[0,0.5],[1,0.5]];portConstraint=eastwest;rotatable=0;whiteSpace=wrap;html=1;rounded=0;shadow=0;glass=0;sketch=0;strokeWidth=1;fontSize=10;fontColor=#ffffff;opacity=60;" parent="74" vertex="1">
                    <mxGeometry y="60" width="70" height="30" as="geometry"/>
                </mxCell>
                <mxCell id="77" value="&lt;font style=&quot;font-size: 12px;&quot;&gt;&lt;b&gt;file:&lt;/b&gt;&lt;/font&gt;" style="text;strokeColor=#314354;fillColor=#647687;align=center;verticalAlign=middle;spacingLeft=4;spacingRight=4;overflow=hidden;points=[[0,0.5],[1,0.5]];portConstraint=eastwest;rotatable=0;whiteSpace=wrap;html=1;rounded=0;shadow=0;glass=0;sketch=0;strokeWidth=1;fontSize=10;fontColor=#ffffff;opacity=60;" parent="74" vertex="1">
                    <mxGeometry y="90" width="70" height="30" as="geometry"/>
                </mxCell>
                <mxCell id="78" value="" style="line;strokeWidth=1;html=1;perimeter=backbonePerimeter;points=[];outlineConnect=0;fontSize=6;" parent="1" vertex="1">
                    <mxGeometry x="120" y="355" width="20" height="10" as="geometry"/>
                </mxCell>
                <mxCell id="79" value="&lt;font color=&quot;#f8f7f7&quot;&gt;YES&lt;/font&gt;" style="text;html=1;strokeColor=none;fillColor=none;align=center;verticalAlign=middle;whiteSpace=wrap;rounded=0;strokeWidth=1;fontSize=6;fontColor=#f20707;" parent="1" vertex="1">
                    <mxGeometry x="115" y="347.5" width="30" height="10" as="geometry"/>
                </mxCell>
                <mxCell id="105" value="&lt;span style=&quot;background-color: initial;&quot;&gt;total files&lt;/span&gt;&lt;br&gt;unique files" style="shape=ext;double=1;rounded=0;whiteSpace=wrap;html=1;shadow=0;glass=0;sketch=0;strokeColor=#314354;strokeWidth=1;fontFamily=Helvetica;fontSize=10;fontColor=#ffffff;startSize=22;fillColor=#647687;opacity=60;align=center;" parent="1" vertex="1">
                    <mxGeometry x="240" y="280" width="80" height="40" as="geometry"/>
                </mxCell>
                <mxCell id="106" value="total files&lt;br&gt;unique files&lt;br&gt;broken" style="shape=ext;double=1;rounded=0;whiteSpace=wrap;html=1;shadow=0;glass=0;sketch=0;strokeColor=#314354;strokeWidth=1;fontFamily=Helvetica;fontSize=10;fontColor=#ffffff;startSize=22;fillColor=#647687;opacity=60;" parent="1" vertex="1">
                    <mxGeometry x="400" y="280" width="80" height="50" as="geometry"/>
                </mxCell>
                <mxCell id="108" value="" style="line;strokeWidth=1;direction=south;html=1;perimeter=backbonePerimeter;points=[];outlineConnect=0;rounded=0;shadow=0;glass=0;sketch=0;strokeColor=#B20000;fontFamily=Helvetica;fontSize=10;fontColor=#ffffff;startSize=22;fillColor=#e51400;opacity=60;" parent="1" vertex="1">
                    <mxGeometry x="275" y="320" width="10" height="280" as="geometry"/>
                </mxCell>
                <mxCell id="109" value="" style="line;strokeWidth=1;direction=south;html=1;perimeter=backbonePerimeter;points=[];outlineConnect=0;rounded=0;shadow=0;glass=0;sketch=0;strokeColor=#B20000;fontFamily=Helvetica;fontSize=10;fontColor=#ffffff;startSize=22;fillColor=#e51400;opacity=60;" parent="1" vertex="1">
                    <mxGeometry x="435" y="330" width="10" height="230" as="geometry"/>
                </mxCell>
                <mxCell id="110" value="" style="line;strokeWidth=1;direction=south;html=1;perimeter=backbonePerimeter;points=[];outlineConnect=0;rounded=0;shadow=0;glass=0;sketch=0;strokeColor=#B20000;fontFamily=Helvetica;fontSize=10;fontColor=#ffffff;startSize=22;fillColor=#e51400;opacity=60;" parent="1" vertex="1">
                    <mxGeometry x="595" y="560" width="10" height="40" as="geometry"/>
                </mxCell>
                <mxCell id="111" value="" style="line;strokeWidth=1;html=1;rounded=0;shadow=0;glass=0;sketch=0;strokeColor=#B20000;fontFamily=Helvetica;fontSize=10;fontColor=#ffffff;startSize=22;fillColor=#e51400;opacity=60;" parent="1" vertex="1">
                    <mxGeometry x="280" y="550" width="160" height="20" as="geometry"/>
                </mxCell>
                <mxCell id="112" value="" style="line;strokeWidth=1;html=1;rounded=0;shadow=0;glass=0;sketch=0;strokeColor=#B20000;fontFamily=Helvetica;fontSize=10;fontColor=#ffffff;startSize=22;fillColor=#e51400;opacity=60;" parent="1" vertex="1">
                    <mxGeometry x="280" y="590" width="320" height="20" as="geometry"/>
                </mxCell>
                <mxCell id="113" value="" style="line;strokeWidth=1;direction=south;html=1;perimeter=backbonePerimeter;points=[];outlineConnect=0;rounded=0;shadow=0;glass=0;sketch=0;strokeColor=#B20000;fontFamily=Helvetica;fontSize=10;fontColor=#ffffff;startSize=22;fillColor=#e51400;opacity=60;" parent="1" vertex="1">
                    <mxGeometry x="275" y="600" width="10" height="40" as="geometry"/>
                </mxCell>
                <mxCell id="114" value="END" style="ellipse;whiteSpace=wrap;html=1;fillColor=#a20025;fontColor=#ffffff;strokeColor=#6F0000;" parent="1" vertex="1">
                    <mxGeometry x="235" y="640" width="90" height="50" as="geometry"/>
                </mxCell>
                <mxCell id="115" value="result" style="swimlane;fontStyle=0;childLayout=stackLayout;horizontal=1;startSize=30;horizontalStack=0;resizeParent=1;resizeParentMax=0;resizeLast=0;collapsible=1;marginBottom=0;whiteSpace=wrap;html=1;rounded=0;shadow=0;glass=0;sketch=0;strokeColor=#314354;strokeWidth=1;fontSize=10;fontColor=#ffffff;opacity=60;fillColor=#647687;" parent="1" vertex="1">
                    <mxGeometry x="140" y="345" width="70" height="180" as="geometry">
                        <mxRectangle x="140" y="345" width="60" height="30" as="alternateBounds"/>
                    </mxGeometry>
                </mxCell>
                <mxCell id="116" value="&lt;font style=&quot;font-size: 12px;&quot;&gt;&lt;b&gt;href:&lt;/b&gt;&lt;/font&gt;" style="text;strokeColor=#314354;fillColor=#647687;align=center;verticalAlign=middle;spacingLeft=4;spacingRight=4;overflow=hidden;points=[[0,0.5],[1,0.5]];portConstraint=eastwest;rotatable=0;whiteSpace=wrap;html=1;rounded=0;shadow=0;glass=0;sketch=0;strokeWidth=1;fontSize=10;fontColor=#ffffff;opacity=60;" parent="115" vertex="1">
                    <mxGeometry y="30" width="70" height="30" as="geometry"/>
                </mxCell>
                <mxCell id="117" value="&lt;font style=&quot;font-size: 12px;&quot;&gt;&lt;b&gt;text:&lt;/b&gt;&lt;/font&gt;" style="text;strokeColor=#314354;fillColor=#647687;align=center;verticalAlign=middle;spacingLeft=4;spacingRight=4;overflow=hidden;points=[[0,0.5],[1,0.5]];portConstraint=eastwest;rotatable=0;whiteSpace=wrap;html=1;rounded=0;shadow=0;glass=0;sketch=0;strokeWidth=1;fontSize=10;fontColor=#ffffff;opacity=60;" parent="115" vertex="1">
                    <mxGeometry y="60" width="70" height="30" as="geometry"/>
                </mxCell>
                <mxCell id="118" value="&lt;font style=&quot;font-size: 12px;&quot;&gt;&lt;b&gt;file:&lt;/b&gt;&lt;/font&gt;" style="text;strokeColor=#314354;fillColor=#647687;align=center;verticalAlign=middle;spacingLeft=4;spacingRight=4;overflow=hidden;points=[[0,0.5],[1,0.5]];portConstraint=eastwest;rotatable=0;whiteSpace=wrap;html=1;rounded=0;shadow=0;glass=0;sketch=0;strokeWidth=1;fontSize=10;fontColor=#ffffff;opacity=60;" parent="115" vertex="1">
                    <mxGeometry y="90" width="70" height="30" as="geometry"/>
                </mxCell>
                <mxCell id="119" value="&lt;font style=&quot;font-size: 12px;&quot;&gt;&lt;b&gt;status:&lt;/b&gt;&lt;/font&gt;" style="text;strokeColor=#314354;fillColor=#647687;align=center;verticalAlign=middle;spacingLeft=4;spacingRight=4;overflow=hidden;points=[[0,0.5],[1,0.5]];portConstraint=eastwest;rotatable=0;whiteSpace=wrap;html=1;rounded=0;shadow=0;glass=0;sketch=0;strokeWidth=1;fontSize=10;fontColor=#ffffff;opacity=60;" parent="115" vertex="1">
                    <mxGeometry y="120" width="70" height="30" as="geometry"/>
                </mxCell>
                <mxCell id="120" value="&lt;span style=&quot;font-size: 12px;&quot;&gt;&lt;b&gt;ok:&lt;/b&gt;&lt;/span&gt;" style="text;strokeColor=#314354;fillColor=#647687;align=center;verticalAlign=middle;spacingLeft=4;spacingRight=4;overflow=hidden;points=[[0,0.5],[1,0.5]];portConstraint=eastwest;rotatable=0;whiteSpace=wrap;html=1;rounded=0;shadow=0;glass=0;sketch=0;strokeWidth=1;fontSize=10;fontColor=#ffffff;opacity=60;" parent="115" vertex="1">
                    <mxGeometry y="150" width="70" height="30" as="geometry"/>
                </mxCell>
                <mxCell id="121" value="" style="line;strokeWidth=1;html=1;rounded=0;shadow=0;glass=0;sketch=0;strokeColor=#B20000;fontFamily=Helvetica;fontSize=10;fontColor=#ffffff;startSize=22;fillColor=#e51400;opacity=60;" vertex="1" parent="1">
                    <mxGeometry x="120" y="590" width="160" height="20" as="geometry"/>
                </mxCell>
                <mxCell id="122" value="" style="endArrow=none;html=1;strokeColor=#990000;" edge="1" parent="1">
                    <mxGeometry width="50" height="50" relative="1" as="geometry">
                        <mxPoint x="120" y="600" as="sourcePoint"/>
                        <mxPoint x="120" y="520" as="targetPoint"/>
                    </mxGeometry>
                </mxCell>
            </root>
        </mxGraphModel>
    </diagram>
</mxfile>